<?xml version="1.0" encoding="UTF-8"?>
<svg version="1.1" xmlns="http://www.w3.org/2000/svg" width="655" height="652">
<path d="M0 0 C9.5519895 8.65802125 18.61835227 17.62737664 27.046875 27.38671875 C29.02394903 29.49285178 31.00332285 31.59682715 32.984375 33.69921875 C38.1811298 39.31558729 42.68893748 45.11197637 47.046875 51.38671875 C48.19736328 52.95292969 48.19736328 52.95292969 49.37109375 54.55078125 C95.46301839 117.50207549 116.47284987 197.82653673 109.046875 275.38671875 C108.716875 275.71671875 108.386875 276.04671875 108.046875 276.38671875 C107.90786448 278.44716361 107.81313936 280.51059254 107.734375 282.57421875 C105.62759984 315.60101754 94.72253258 348.49441502 81.046875 378.38671875 C80.35722656 379.91167969 79.66757812 381.43664062 78.95703125 383.0078125 C62.61646286 418.41716369 39.30151491 449.22050165 11.921875 476.76171875 C10.82536621 477.86757324 9.72885742 478.97342773 8.59912109 480.11279297 C2.05034573 486.63596795 -4.67713125 492.68805916 -11.953125 498.38671875 C-13.07203125 499.28261719 -14.1909375 500.17851563 -15.34375 501.1015625 C-23.2890735 507.27764047 -31.48308706 512.95427238 -39.953125 518.38671875 C-41.00757813 519.06863281 -42.06203125 519.75054688 -43.1484375 520.453125 C-51.99401586 525.96331388 -61.2152009 530.7638028 -70.453125 535.57421875 C-71.74669922 536.25178223 -73.04027344 536.9293457 -74.37304688 537.62744141 C-83.04865059 542.09798834 -91.82841822 545.92988922 -100.953125 549.38671875 C-102.56703125 550.00417969 -104.1809375 550.62164063 -105.84375 551.2578125 C-188.73825646 581.04338337 -278.85542307 575.78601432 -358.640625 539.07421875 C-381.4030018 527.93436174 -402.27535639 514.36565867 -421.953125 498.38671875 C-423.31050781 497.319375 -423.31050781 497.319375 -424.6953125 496.23046875 C-433.22817796 489.4446885 -441.09258583 481.9318403 -448.953125 474.38671875 C-450.10167969 473.28714844 -451.25023437 472.18757812 -452.43359375 471.0546875 C-454.953125 468.38671875 -454.953125 468.38671875 -454.953125 466.38671875 C-455.943125 466.05671875 -456.933125 465.72671875 -457.953125 465.38671875 C-460.36576868 462.7687437 -462.65803012 460.10577432 -464.953125 457.38671875 C-465.83355469 456.39285156 -466.71398437 455.39898438 -467.62109375 454.375 C-523.17926996 391.18399641 -548.3650771 308.09117616 -544.7109375 224.87109375 C-542.7072199 196.81904728 -537.6193119 169.12897039 -528.953125 142.38671875 C-528.41042969 140.65292969 -527.86773438 138.91914063 -527.30859375 137.1328125 C-515.30609964 100.71648609 -495.4224068 67.70519329 -470.953125 38.38671875 C-469.39030381 36.4078057 -467.82776891 34.42866649 -466.265625 32.44921875 C-462.63604916 28.00049094 -458.64093441 24.27032023 -454.30859375 20.515625 C-450.87309075 17.41056839 -447.94857397 13.91077636 -444.953125 10.38671875 C-432.99944488 -1.86580337 -420.10285663 -12.29767185 -405.95703125 -21.88671875 C-403.50945611 -23.55345772 -401.07584539 -25.24125072 -398.66796875 -26.96484375 C-385.02246872 -36.72888043 -370.05403898 -44.365433 -354.953125 -51.61328125 C-353.68597656 -52.23589844 -352.41882813 -52.85851562 -351.11328125 -53.5 C-236.38814178 -107.41753457 -94.0344833 -83.21305467 0 0 Z " fill="#194977" transform="translate(544.953125,81.61328125)"/>
<path d="M0 0 C-1 4 -1 4 -2 5 C-3.4025 5.268125 -4.805 5.53625 -6.25 5.8125 C-10.97994145 6.99498536 -12.39485945 8.02575905 -16 11 C-18.9878344 12.03578259 -21.98715809 13.03938374 -25 14 C-25.66 14.66 -26.32 15.32 -27 16 C-30.6315718 17.42104983 -33.0553602 18 -37 18 C-36.67 19.32 -36.34 20.64 -36 22 C-38.64668518 24.02636834 -41.31331857 26.02696832 -44 28 C-43.67 28.99 -43.34 29.98 -43 31 C-47.84510181 34.23006787 -53.41324888 33.2862325 -59.0625 33.25 C-60.87717773 33.26160156 -60.87717773 33.26160156 -62.72851562 33.2734375 C-71.74672619 33.25327381 -71.74672619 33.25327381 -74 31 C-74 30.01 -74 29.02 -74 28 C-73.34 28 -72.68 28 -72 28 C-72 27.34 -72 26.68 -72 26 C-70.329375 26.2475 -70.329375 26.2475 -68.625 26.5 C-65.27967967 27.0455458 -65.27967967 27.0455458 -63 27 C-67.68510114 25.12595954 -70.11476189 24.80842203 -75 25 C-75 27.64 -75 30.28 -75 33 C-77.64 33 -80.28 33 -83 33 C-83 35.31 -83 37.62 -83 40 C-79.81254746 40.02714009 -76.62502772 40.04645924 -73.4375 40.0625 C-70.77494141 40.07990234 -70.77494141 40.07990234 -68.05859375 40.09765625 C-63.89890225 40.01735333 -60.09500439 39.63038249 -56 39 C-54.02 39 -52.04 39 -50 39 C-49.34 38.01 -48.68 37.02 -48 36 C-48.375 39 -48.375 39 -49 42 C-49.66 42 -50.32 42 -51 42 C-51 42.66 -51 43.32 -51 44 C-49.02 44 -47.04 44 -45 44 C-40.81332792 46.12124719 -36.90245529 48.39836314 -33 51 C-31.411875 51.45375 -29.82375 51.9075 -28.1875 52.375 C-23.66859678 53.79056005 -20.71446579 55.16527611 -17 58 C-19.86888201 60.86888201 -23.07302991 61.62496561 -26.875 63 C-31.0573325 64.51808802 -35.01845158 66.00922579 -39 68 C-41.125 65.6875 -41.125 65.6875 -43 63 C-43.66 62.67 -44.32 62.34 -45 62 C-45.33 62.66 -45.66 63.32 -46 64 C-49.02776872 63.08752175 -52.03056206 62.08739981 -55 61 C-54.7834375 63.35125 -54.7834375 63.35125 -54.5625 65.75 C-54.706875 67.4825 -54.85125 69.215 -55 71 C-59.29657818 74.5383585 -61.39740336 75 -67 75 C-67 75.66 -67 76.32 -67 77 C-69 78 -71 79 -73 80 C-73.66 80.99 -74.32 81.98 -75 83 C-76.11375 83.309375 -77.2275 83.61875 -78.375 83.9375 C-82.45956343 84.82000128 -82.45956343 84.82000128 -86 89 C-86.86625 89.845625 -87.7325 90.69125 -88.625 91.5625 C-92.14557811 95.17572491 -92.98297114 96.9148557 -94 102 C-92.02 102.495 -92.02 102.495 -90 103 C-89.34 104.32 -88.68 105.64 -88 107 C-86.4840625 107.185625 -86.4840625 107.185625 -84.9375 107.375 C-79.34903057 108.26205864 -76.33590199 110.39621022 -72 114 C-70.91770935 118.59384155 -70.91770935 118.59384155 -70.97827148 124.04443359 C-70.97630013 125.53804413 -70.97630013 125.53804413 -70.97428894 127.06182861 C-70.98054346 130.34251483 -71.05045807 133.61855884 -71.12109375 136.8984375 C-71.13788575 139.17670173 -71.15069412 141.45499851 -71.15968323 143.73330688 C-71.19400024 149.72155946 -71.28236746 155.70783829 -71.38201904 161.6953125 C-71.47418872 167.80832212 -71.51521304 173.92165163 -71.56054688 180.03515625 C-71.65698761 192.02434196 -71.81053371 204.01192527 -72 216 C-73.65 215.67 -75.3 215.34 -77 215 C-79.66484603 214.65241139 -82.33129799 214.31662566 -85 214 C-85 215.32 -85 216.64 -85 218 C-86.98 218 -88.96 218 -91 218 C-91.33 217.67 -91.66 217.34 -92 217 C-97.5 216.66666667 -97.5 216.66666667 -103 217 C-103.33 217.99 -103.66 218.98 -104 220 C-105.32 221.32 -106.64 222.64 -108 224 C-108.87511832 228.10012257 -108.87511832 228.10012257 -109 233 C-109.06316406 234.05445313 -109.12632813 235.10890625 -109.19140625 236.1953125 C-109.44395773 243.21787305 -108.87727541 247.89035389 -105 254 C-103.83752049 255.38929654 -103.83752049 255.38929654 -100.625 255.125 C-97.04677028 255.17300461 -97.04677028 255.17300461 -94 254 C-93.525625 252.68 -93.05125 251.36 -92.5625 250 C-91.7890625 248.02 -91.7890625 248.02 -91 246 C-86.83531584 244.95882896 -83.27314604 244.9287809 -79 245 C-79.70009625 249.73117677 -80.80792476 254.26140072 -82.0625 258.875 C-82.42472656 260.21304687 -82.78695312 261.55109375 -83.16015625 262.9296875 C-83.43730469 263.94289063 -83.71445313 264.95609375 -84 266 C-83.34 265.67 -82.68 265.34 -82 265 C-77.0625 264.75 -77.0625 264.75 -72 265 C-69 268 -69 268 -68.8125 271.73046875 C-68.9053125 273.93669922 -68.9053125 273.93669922 -69 276.1875 C-69.12854774 282.49705151 -68.93098888 287.26014677 -66 293 C-67.32 292.67 -68.64 292.34 -70 292 C-70.66 290.68 -71.32 289.36 -72 288 C-73.32 288 -74.64 288 -76 288 C-77.0625 285.1875 -77.0625 285.1875 -78 282 C-78.99 281.01 -79.98 280.02 -81 279 C-81 278.34 -81 277.68 -81 277 C-83.99894307 276.32859483 -86.99908583 275.66253949 -90 275 C-95 272 -95 272 -97.5625 269.3125 C-101.86675882 266.4169077 -104.67991005 267.09852187 -109.703125 267.3359375 C-116.10202104 266.68391729 -120.8733098 262.62085329 -126 259 C-128.041875 257.88625 -128.041875 257.88625 -130.125 256.75 C-133.74372 253.28861566 -133.99214849 250.17216744 -134.9453125 245.3828125 C-137.02891453 238.69985191 -141.75666665 233.46556379 -146 228 C-147.50842246 225.9854457 -149.00923637 223.96515657 -150.5 221.9375 C-151.1290625 221.10089844 -151.758125 220.26429688 -152.40625 219.40234375 C-154.63315006 216.04561939 -156 213.06214173 -156 209 C-157.32 209 -158.64 209 -160 209 C-158.37762927 213.77884193 -158.37762927 213.77884193 -156.0625 216.375 C-153.64834987 219.44755471 -152.49358372 222.38093176 -151 226 C-149.42502715 229.12160428 -147.82394902 232.22804908 -146.20703125 235.328125 C-145 238 -145 238 -145 241 C-149.66905076 239.83273731 -150.92766374 238.62378122 -154 235 C-155.00484883 232.66875071 -156.00522247 230.33556463 -157 228 C-158.32 227.01 -159.64 226.02 -161 225 C-160.835 224.05125 -160.67 223.1025 -160.5 222.125 C-160.335 221.09375 -160.17 220.0625 -160 219 C-161.32732954 217.32854798 -162.66226218 215.66313351 -164 214 C-168 203.96632997 -168 203.96632997 -168 200 C-169.65 199.34 -171.3 198.68 -173 198 C-177 196 -177 196 -179 192 C-179.73588497 182.82351445 -177.75319004 175.56514208 -174.75 166.9375 C-174.30180908 165.62837646 -173.85361816 164.31925293 -173.3918457 162.97045898 C-160.95615162 127.56306645 -142.00111506 95.757529 -118 67 C-116.43717881 65.02108695 -114.87464391 63.04194774 -113.3125 61.0625 C-109.68292416 56.61377219 -105.68780941 52.88360148 -101.35546875 49.12890625 C-97.91996575 46.02384964 -94.99544897 42.52405761 -92 39 C-79.99295666 26.69278058 -67.03916055 16.2473601 -52.83203125 6.61328125 C-50.27393958 4.86877225 -47.74964393 3.07366515 -45.26171875 1.23046875 C-33.68829937 -6.68380965 -12.99367114 -1.42257201 0 0 Z " fill="#72AF5A" transform="translate(192,53)"/>
<path d="M0 0 C1.32 0.66 2.64 1.32 4 2 C4.99 2.33 5.98 2.66 7 3 C7.21942094 6.91300681 6.98906218 10.74245491 6.8125 14.65625 C6.874375 15.7596875 6.93625 16.863125 7 18 C7.99 18.33 8.98 18.66 10 19 C9.79453719 23.62291315 8.86881732 25.17491025 6 29 C7.65 28.34 9.3 27.68 11 27 C13.18569534 22.43328912 13.18569534 22.43328912 13 19 C12.34 19 11.68 19 11 19 C8.53053144 12.37142649 9.37245026 8.56887436 12 2 C12.66 2 13.32 2 14 2 C14.12375 3.32 14.2475 4.64 14.375 6 C14.58125 7.32 14.7875 8.64 15 10 C16.32 10 17.64 10 19 10 C18.505 7.525 18.505 7.525 18 5 C18.33 4.67 18.66 4.34 19 4 C24.6600426 4 25.10178215 4.28741157 29 8 C83.92669898 68.20811234 113.83536403 146.24577956 114.25 227.625 C114.25926514 228.75679687 114.26853027 229.88859375 114.27807617 231.0546875 C114.25641716 236.68093557 114.0297945 241.71344568 112 247 C111.67 247 111.34 247 111 247 C110.80770007 244.25285819 110.67374521 241.50161623 110.5625 238.75 C110.19934823 231.33467522 109.40085873 224.2844654 108 217 C106.35 217.99 104.7 218.98 103 220 C101.68 219.67 100.36 219.34 99 219 C98.29076557 215.67546363 97.62883336 212.3406772 97 209 C95.11586085 205.67191761 95.11586085 205.67191761 93 203 C92.34 201.68 91.68 200.36 91 199 C89.35 199.33 87.7 199.66 86 200 C84.618125 199.9175 83.23625 199.835 81.8125 199.75 C80.554375 199.8325 79.29625 199.915 78 200 C77.34 201.65 76.68 203.3 76 205 C75.34 205.99 74.68 206.98 74 208 C73.34 208 72.68 208 72 208 C72 208.66 72 209.32 72 210 C70.68 211.32 69.36 212.64 68 214 C66.824375 215.381875 65.64875 216.76375 64.4375 218.1875 C61 222 61 222 58 223 C57.67126696 226.01732731 57.67126696 226.01732731 57.875 229.5 C57.9456277 231.66591604 57.99417457 233.83294056 58 236 C57.67 236.33 57.34 236.66 57 237 C56.938125 238.2375 56.87625 239.475 56.8125 240.75 C56 245 56 245 53.125 248.0625 C52.09375 248.701875 51.0625 249.34125 50 250 C49.01 249.67 48.02 249.34 47 249 C44.23573271 243.17669758 42.1752818 237.06413351 40 231 C39.48308594 229.60523438 38.96617187 228.21046875 38.43359375 226.7734375 C35.27302102 217.64289404 34.37699722 209.63577629 35 200 C34.34 200 33.68 200 33 200 C32.34 201.32 31.68 202.64 31 204 C27 202 27 202 25 200 C24.67 198.68 24.34 197.36 24 196 C21.25403926 192.08447338 21.25403926 192.08447338 17 189 C13.97867844 188.90261146 13.97867844 188.90261146 10.82519531 189.16044617 C7.94172363 188.58602531 7.94172363 188.58602531 5 188 C3.70523886 182.82450158 3.45940866 179.35516454 3.609375 174.12036133 C3.60429428 172.6570639 3.59921356 171.19376648 3.59397888 169.68612671 C3.59042889 164.81621769 3.67093237 159.95124173 3.75 155.08203125 C3.76009342 151.71238927 3.76433451 148.34272505 3.76293945 144.97306824 C3.77245461 136.0756118 3.85038327 127.18010701 3.94561768 118.28320312 C4.08701426 104.05911928 4.12796728 89.83447868 4.16442871 75.60980797 C4.18727257 70.63159382 4.24033954 65.65438843 4.29785156 60.6764679 C4.31771126 57.62651989 4.33695046 54.57656777 4.35546875 51.52661133 C4.37935165 50.13779251 4.40323456 48.74897369 4.42784119 47.31806946 C4.43127029 46.04072937 4.4346994 44.76338928 4.43823242 43.44734192 C4.45013107 42.34064557 4.46202972 41.23394922 4.47428894 40.09371662 C3.87488923 36.18392092 2.48588482 34.04774543 0 31 C-3.82119649 29.09013328 -3.82119649 29.09013328 -8.1875 27.8125 C-9.69570313 27.32136719 -11.20390625 26.83023438 -12.7578125 26.32421875 C-14.15773438 25.88722656 -15.55765625 25.45023438 -17 25 C-18.835625 24.38125 -20.67125 23.7625 -22.5625 23.125 C-23.696875 22.75375 -24.83125 22.3825 -26 22 C-25.67 21.34 -25.34 20.68 -25 20 C-24.34 20 -23.68 20 -23 20 C-23 19.01 -23 18.02 -23 17 C-25.475 16.01 -25.475 16.01 -28 15 C-28 14.34 -28 13.68 -28 13 C-25 13.66666667 -22 14.33333333 -19 15 C-17.4325 15.309375 -15.865 15.61875 -14.25 15.9375 C-10 17 -10 17 -5 20 C-4.67 19.67 -4.34 19.34 -4 19 C-4.680625 18.0925 -5.36125 17.185 -6.0625 16.25 C-6.701875 15.1775 -7.34125 14.105 -8 13 C-5.98608864 7.9652216 -3.84630121 3.84630121 0 0 Z " fill="#76B459" transform="translate(541,98)"/>
<path d="M0 0 C5.81181694 2.10549573 11.64177914 4.12690519 17.51367188 6.05810547 C22.68828158 7.78297537 27.86286159 9.50793134 33.03710938 11.23388672 C36.41625883 12.35946646 39.79628569 13.48242076 43.17773438 14.60107422 C52.7501651 17.77204816 62.27457351 21.0634764 71.78710938 24.40966797 C76.98240117 26.22157965 82.19908009 27.95854151 87.42382812 29.68310547 C92.55342099 31.40766773 97.65723308 33.20401232 102.76367188 34.99560547 C111.68173761 38.12130549 120.6455906 41.0488343 129.67773438 43.83154297 C132.66431014 44.7865173 135.60239612 45.89359517 138.51367188 47.05810547 C139.02590833 51.79671739 139.19535512 56.17676008 139.16064453 60.9230957 C139.17378693 63.10226341 139.17378693 63.10226341 139.18719482 65.32545471 C139.20934789 70.17283322 139.19454676 75.01930981 139.17773438 79.86669922 C139.18110532 83.25838901 139.18596026 86.65007763 139.19223022 90.04176331 C139.19962909 97.19372928 139.18882559 104.34538451 139.16552734 111.49731445 C139.13747744 120.53669723 139.1536031 129.57533019 139.18274784 138.61468506 C139.30319006 182.65626549 139.39054181 226.08492812 128.51367188 269.05810547 C128.18753906 270.55083984 127.86140625 272.04357422 127.52539062 273.58154297 C119.73060035 308.07123274 103.9697255 341.72281218 84.51367188 371.05810547 C83.55976563 372.49669922 82.60585938 373.93529297 81.62304688 375.41748047 C74.39797927 386.1138096 66.55242062 395.95633241 57.84960938 405.47607422 C55.97598343 407.54708885 54.14063669 409.65270623 52.31835938 411.76904297 C48.11476112 416.50780157 43.74374147 421.02002267 39.26367188 425.49560547 C38.0018811 426.75618774 38.0018811 426.75618774 36.71459961 428.04223633 C31.69272741 433.01473687 26.61403275 437.75834249 21.02929688 442.10107422 C18.21413202 444.29113259 15.53078513 446.60815049 12.82617188 448.93310547 C-3.4687578 462.50523198 -22.08692738 473.59188054 -40.48632812 484.05810547 C-42.93039062 485.51216797 -42.93039062 485.51216797 -45.42382812 486.99560547 C-49.48632812 489.05810547 -49.48632812 489.05810547 -54.48632812 489.05810547 C-58.30664063 487.08154297 -58.30664063 487.08154297 -62.61132812 484.43310547 C-67.39697302 481.52753535 -72.14613409 478.64539031 -77.11132812 476.05810547 C-88.18873458 470.09852814 -98.405363 462.54835652 -108.48632812 455.05810547 C-110.35611328 453.70072266 -110.35611328 453.70072266 -112.26367188 452.31591797 C-120.14991605 446.52715913 -127.53071882 440.50417321 -134.62304688 433.76513672 C-137.12229585 431.40227241 -139.67383743 429.15354419 -142.29882812 426.93310547 C-143.35070312 425.98435547 -144.40257812 425.03560547 -145.48632812 424.05810547 C-145.48632812 423.39810547 -145.48632812 422.73810547 -145.48632812 422.05810547 C-146.80632812 421.39810547 -148.12632812 420.73810547 -149.48632812 420.05810547 C-154.56645505 415.37641987 -158.86685027 410.23113521 -163.17773438 404.85888672 C-165.30029602 402.28379924 -167.51146461 399.86110255 -169.79882812 397.43310547 C-183.10025542 382.78763152 -193.09281452 365.07208799 -202.92382812 347.99560547 C-203.43236328 347.11485352 -203.94089844 346.23410156 -204.46484375 345.32666016 C-207.12039246 340.66608306 -209.48993262 336.0350351 -211.48632812 331.05810547 C-212.07929688 329.60919922 -212.67226562 328.16029297 -213.28320312 326.66748047 C-226.11924556 294.7314069 -226.11924556 294.7314069 -229.58398438 279.83154297 C-230.71516177 275.10116477 -232.11406456 270.471301 -233.55664062 265.82763672 C-234.64809608 261.40219759 -235.31944741 256.98018391 -235.98193359 252.47290039 C-236.4502918 249.30207453 -236.95944647 246.14152794 -237.48632812 242.97998047 C-237.81966146 240.9226888 -238.15299479 238.86539714 -238.48632812 236.80810547 C-238.65132812 235.83615234 -238.81632813 234.86419922 -238.98632812 233.86279297 C-242.73483931 210.37602756 -242.8739954 186.66422424 -242.99804688 162.94482422 C-243.00744608 161.31785929 -243.01684528 159.69089436 -243.02652931 158.01462746 C-243.07365989 149.44474104 -243.1075386 140.87491215 -243.1315918 132.30493164 C-243.15959447 123.45742123 -243.23917462 114.61110655 -243.32913494 105.76404095 C-243.38869862 98.93982522 -243.40882994 92.11590462 -243.41810036 85.29145241 C-243.42970434 82.02630498 -243.45660978 78.76117507 -243.49902916 75.49628258 C-243.55462311 70.95816259 -243.55422759 66.42337025 -243.53979492 61.88500977 C-243.56901031 60.53605621 -243.59822571 59.18710266 -243.62832642 57.79727173 C-243.58521303 54.31851488 -243.50133875 51.38609083 -242.48632812 48.05810547 C-238.17605591 45.28485107 -238.17605591 45.28485107 -233.48632812 44.05810547 C-232.13692139 43.57801025 -230.78751465 43.09791504 -229.3972168 42.60327148 C-228.01767822 42.15653076 -226.63813965 41.70979004 -225.21679688 41.24951172 C-218.55892865 39.06859224 -211.91579237 36.85370266 -205.28710938 34.58544922 C-203.56298828 33.99570313 -201.83886719 33.40595703 -200.0625 32.79833984 C-198.32548828 32.2034375 -196.58847656 31.60853516 -194.79882812 30.99560547 C-184.07162265 27.32233828 -173.34492725 23.65366239 -162.57226562 20.11547852 C-159.74018153 19.14508641 -156.95342763 18.04494527 -154.17382812 16.93310547 C-149.34133797 15.00010941 -144.47065646 13.54693082 -139.48632812 12.05810547 C-138.39320313 11.58373047 -137.30007812 11.10935547 -136.17382812 10.62060547 C-132.00222908 8.85297875 -127.73945741 7.59061898 -123.40429688 6.28857422 C-117.0134298 4.2814724 -110.71624327 2.01072168 -104.40039062 -0.21923828 C-100.2735934 -1.66591362 -96.13880512 -3.07130572 -91.98632812 -4.44189453 C-75.10971505 -9.93731285 -75.10971505 -9.93731285 -58.61132812 -16.44189453 C-43.51585798 -21.9311564 -15.13109408 -5.49250167 0 0 Z M-62.46289062 -4.68408203 C-69.02695964 -2.09365519 -75.65571364 0.17775537 -82.36132812 2.37060547 C-93.12041068 5.9209978 -103.83398024 9.58260686 -114.52539062 13.33154297 C-119.16672625 14.94687395 -123.82379875 16.50529472 -128.48632812 18.05810547 C-131.65516356 19.15603251 -134.82175503 20.26045281 -137.98632812 21.37060547 C-139.736875 21.98419922 -141.48742187 22.59779297 -143.29101562 23.22998047 C-147.9007303 24.85204548 -152.50633992 26.4851891 -157.11132812 28.12060547 C-164.49736319 30.73401807 -171.92194961 33.21840465 -179.36523438 35.66357422 C-184.55242831 37.41886165 -189.68021182 39.24358243 -194.67382812 41.49560547 C-198.87945382 43.21922256 -203.16401115 44.50456984 -207.51367188 45.81201172 C-220.89417138 48.93754788 -220.89417138 48.93754788 -232.48632812 55.05810547 C-232.59285017 59.3286755 -232.63309276 63.58317068 -232.6315918 67.85424805 C-232.63495041 69.20417847 -232.63830902 70.55410889 -232.64176941 71.94494629 C-232.65133182 76.44751895 -232.65322651 80.9500545 -232.65429688 85.45263672 C-232.65751065 88.59022538 -232.66087481 91.72781388 -232.66438293 94.86540222 C-232.67039073 101.47415513 -232.67222163 108.08289494 -232.67163086 114.69165039 C-232.67153024 123.08633074 -232.68506946 131.48092458 -232.70240307 139.8755846 C-232.71363793 146.37654489 -232.71554642 152.87748521 -232.71502113 159.37845421 C-232.71618838 162.46737651 -232.72053811 165.55629954 -232.7283535 168.64521217 C-232.78360281 192.78109696 -232.26642257 216.90070946 -228.61132812 240.80810547 C-228.43770752 241.9730957 -228.26408691 243.13808594 -228.08520508 244.33837891 C-226.73676088 253.07615107 -224.95490241 261.56330571 -222.48632812 270.05810547 C-221.67808594 272.91402344 -221.67808594 272.91402344 -220.85351562 275.82763672 C-217.66776985 286.993042 -214.35365256 298.10719688 -210.48632812 309.05810547 C-209.95845703 310.60691406 -209.95845703 310.60691406 -209.41992188 312.18701172 C-205.78205182 322.31474056 -200.60154334 331.61463123 -195.48632812 341.05810547 C-194.51759766 342.89888672 -194.51759766 342.89888672 -193.52929688 344.77685547 C-168.37334325 392.47663208 -128.30547786 431.80116051 -83.48632812 461.05810547 C-82.46410156 461.74517578 -81.441875 462.43224609 -80.38867188 463.14013672 C-65.46023607 474.14210955 -65.46023607 474.14210955 -48.48632812 477.05810547 C-11.4555333 458.67835199 22.47032396 432.29783496 49.51367188 401.05810547 C50.18011719 400.34267578 50.8465625 399.62724609 51.53320312 398.89013672 C58.48649665 391.41064801 64.50797927 383.30786063 70.51367188 375.05810547 C71.28710938 374.00880859 72.06054688 372.95951172 72.85742188 371.87841797 C88.73394691 349.73181602 100.85991228 324.92348582 109.71679688 299.26123047 C110.83094137 296.03505555 111.96296261 292.81492238 113.12304688 289.60498047 C116.91965728 278.84139426 119.36008033 268.04928096 121.53320312 256.87060547 C122.51367187 252.05810547 122.51367187 252.05810547 123.51367188 250.05810547 C123.9401851 247.10019883 124.31619647 244.13497159 124.66992188 241.16748047 C124.88777344 239.34216797 125.105625 237.51685547 125.33007812 235.63623047 C125.55566406 233.71294922 125.78125 231.78966797 126.01367188 229.80810547 C126.23925781 227.93123047 126.46484375 226.05435547 126.69726562 224.12060547 C128.45313743 209.28400818 129.63850999 194.62018201 129.80175781 179.68066406 C129.81957306 178.31954498 129.83738831 176.9584259 129.85574341 175.55606079 C130.00871349 163.15595106 130.09728284 150.75515312 130.16573715 138.3543148 C130.21217558 130.03727892 130.28030691 121.72162633 130.3984375 113.40527344 C130.51259335 105.33600442 130.57352488 97.26798374 130.59626007 89.19795609 C130.61408912 86.12531339 130.65103181 83.052721 130.70726776 79.98054123 C130.78205532 75.69937403 130.78855798 71.42328919 130.77832031 67.14160156 C130.8162973 65.8688739 130.85427429 64.59614624 130.8934021 63.28485107 C130.96273235 59.35637953 130.96273235 59.35637953 129.51367188 54.05810547 C125.85327828 51.55426708 122.96176553 51.04457182 118.51367188 50.05810547 C116.8962207 49.54147339 116.8962207 49.54147339 115.24609375 49.0144043 C114.33408203 48.746521 113.42207031 48.4786377 112.48242188 48.20263672 C103.9160591 45.60971906 95.47381042 42.66312676 87.01367188 39.74560547 C73.53530955 35.11502628 60.04546876 30.53037073 46.51367188 26.05810547 C40.63874411 24.11337201 34.78772429 22.11504024 28.95117188 20.05810547 C20.00452629 16.91951119 11.04341304 13.824835 2.07617188 10.74560547 C0.72346191 10.280979 -0.62924805 9.81635254 -2.02294922 9.33764648 C-7.57505075 7.43089394 -13.12731432 5.5246137 -18.6796875 3.61865234 C-22.67815905 2.24553528 -26.67605372 0.8707507 -30.67382812 -0.50439453 C-31.89062256 -0.92180908 -33.10741699 -1.33922363 -34.36108398 -1.76928711 C-35.48909424 -2.15753662 -36.61710449 -2.54578613 -37.77929688 -2.94580078 C-38.76438232 -3.28426025 -39.74946777 -3.62271973 -40.7644043 -3.97143555 C-43.36208962 -4.89759925 -45.92572673 -5.91765397 -48.48632812 -6.94189453 C-53.81866898 -7.60843714 -57.58220258 -6.65893128 -62.46289062 -4.68408203 Z " fill="#EDF3F7" transform="translate(384.486328125,98.94189453125)"/>
<path d="M0 0 C5.40636621 2.16254648 10.02968921 4.98006433 15 8 C19.05684215 10.37488754 19.05684215 10.37488754 24.375 10.1875 C30 11 30 11 33.6875 14.375 C36 18 36 18 36 21 C37.64871094 20.98839844 39.29742187 20.97679687 40.99609375 20.96484375 C43.14322804 20.95546762 45.29036355 20.94636723 47.4375 20.9375 C48.52611328 20.92912109 49.61472656 20.92074219 50.73632812 20.91210938 C53.49102784 20.90352776 56.24578612 20.94755876 59 21 C59.33 21.33 59.66 21.66 60 22 C59.6695188 27.50801993 58.49977021 31.67133684 55 36 C52.64387497 35.41899767 50.31274549 34.73491304 48 34 C45.36033278 33.72433032 42.71278937 33.51572333 40.0625 33.375 C38.73347656 33.30023438 37.40445313 33.22546875 36.03515625 33.1484375 C34.53275391 33.07496094 34.53275391 33.07496094 33 33 C33 33.66 33 34.32 33 35 C35.97435735 35.26438732 38.94989319 35.5211219 41.9296875 35.71484375 C45.18966995 36.01761566 47.97777592 36.74073997 51 38 C49 42 49 42 47 44 C46.01 44 45.02 44 44 44 C44 43.01 44 42.02 44 41 C43.01 41 42.02 41 41 41 C41 40.34 41 39.68 41 39 C31.1 39.495 31.1 39.495 21 40 C21 39.34 21 38.68 21 38 C16.70069658 36.96111057 12.53048815 36.89254604 8.125 36.9375 C6.97257812 36.94652344 5.82015625 36.95554688 4.6328125 36.96484375 C3.76398438 36.97644531 2.89515625 36.98804688 2 37 C2.33 37.33 2.66 37.66 3 38 C4.60875 37.979375 6.2175 37.95875 7.875 37.9375 C13 38 13 38 16 40 C15.67 40.99 15.34 41.98 15 43 C14.34 43 13.68 43 13 43 C12.41466558 47.24762685 12.41466558 47.24762685 13 52 C15.92865087 55.26145211 19.09489219 57.40987999 22.75 59.79296875 C35.98130132 68.42432547 46.5164218 77.22350635 51.9375 92.4375 C55.24622737 108.34007091 53.59523253 123.80953494 46.375 138.25 C36.44887891 152.22009635 22.92956392 160.22509168 8.25 168.625 C-9.59772542 178.60936606 -9.59772542 178.60936606 -21 195 C-21.86348031 202.84160611 -21.56411175 209.32937513 -17 216 C-11.38285141 221.51501862 -6.62166798 224.27998002 1.3125 224.375 C9.06978193 224.22615825 13.68053961 222.23193358 19.3125 216.8125 C24.16010697 209.93566221 25.81268788 203.35907532 25 195 C22.6585747 188.06938112 19.57471728 183.72433668 14 179 C11.6742512 177.9824849 9.3433148 176.97638117 7 176 C8.53701586 171.38895243 11.87174643 170.76256998 16.125 168.625 C20.62353724 166.35624032 24.77767024 164.16034692 28.8671875 161.2109375 C32 159 32 159 35 159 C37.25 161 37.25 161 40 164 C41.155 165.216875 42.31 166.43375 43.5 167.6875 C53.13078681 179.55400518 56.52005033 193.93461227 55 209 C51.80366775 224.05369383 44.64962361 235.44317976 33.0625 245.375 C20.08305777 253.76171652 3.9896755 256.25456129 -11.09375 253.16015625 C-26.94757642 248.66723025 -38.39845353 240.12611696 -47 226 C-52.69741874 211.12340663 -52.85313529 195.81461262 -47 181 C-37.64604738 162.92986427 -22.29687074 153.1826715 -5.33886719 143.06323242 C1.39227306 139.03579282 7.7113997 134.6929853 14 130 C14.66 130 15.32 130 16 130 C16.99 128.02 16.99 128.02 18 126 C18.639375 125.2575 19.27875 124.515 19.9375 123.75 C25.11010074 116.85319901 25.95684662 109.41590094 25 101 C21.49052897 89.20817732 14.18142182 82.26301973 4 76 C1.35816555 74.61811736 -1.30819001 73.28181428 -4 72 C-12.1449594 67.9275203 -19.50452746 63.48641763 -22.5 54.5 C-23.7375 52.7675 -23.7375 52.7675 -25 51 C-30.38746854 50.29053912 -35.5968513 50.54764336 -41 51 C-37.57817204 45.35926697 -33.56945264 42.07892451 -28.36328125 38.1484375 C-25.62062985 36.05416994 -25.62062985 36.05416994 -25 32 C-27.79736394 29.34209976 -27.79736394 29.34209976 -31.4375 26.875 C-33.65447039 25.29044216 -35.85009257 23.67441909 -38 22 C-38 21.34 -38 20.68 -38 20 C-36.25332031 20.01160156 -34.50664062 20.02320313 -32.70703125 20.03515625 C-30.40885524 20.04453656 -28.11067807 20.0536365 -25.8125 20.0625 C-24.66201172 20.07087891 -23.51152344 20.07925781 -22.32617188 20.08789062 C-17.3735987 20.10224591 -12.8707796 19.97415592 -8 19 C-10.00853789 15.80121743 -11.94728672 13.05271328 -14.625 10.375 C-17 8 -17 8 -19 4 C-16.525 4.99 -16.525 4.99 -14 6 C-7.05474754 8.59400995 -0.12571213 10.93457619 7 13 C6.030625 11.411875 5.06125 9.82375 4.0625 8.1875 C2.37503569 5.42293081 1.0263 3.07890001 0 0 Z " fill="#10C7E3" transform="translate(333,118)"/>
<path d="M0 0 C0.99 0.99 0.99 0.99 2 2 C9.89192581 6.18755247 18.32851727 5.26605686 27 5 C25.67513964 8.97458107 24.19758645 9.24540704 20.5234375 11.14453125 C19.38527588 11.73613037 18.24711426 12.32772949 17.07446289 12.93725586 C15.85364014 13.55608643 14.63281738 14.17491699 13.375 14.8125 C12.13548584 15.44615479 10.89597168 16.07980957 9.61889648 16.73266602 C1.23310653 20.97585924 -7.13595152 24.85685632 -16 28 C-17.45019531 28.5465625 -18.90039062 29.093125 -20.39453125 29.65625 C-82.87707138 52.57824381 -149.64782954 54.87316964 -214 39 C-215.10053711 38.73058594 -216.20107422 38.46117187 -217.33496094 38.18359375 C-219.90840873 37.52386285 -222.45786588 36.77164273 -225 36 C-225.33 35.34 -225.66 34.68 -226 34 C-224.32035156 33.98582031 -222.64070312 33.97164062 -220.91015625 33.95703125 C-195.10388572 33.74097429 -195.10388572 33.74097429 -173 22 C-170.86891175 21.56583688 -168.71847463 21.22352116 -166.5625 20.9375 C-163.20873355 20.48408576 -160.21222706 20.07074235 -157 19 C-156.67 17.68 -156.34 16.36 -156 15 C-151.67341421 14.69095816 -148.13536339 14.62154554 -144 16 C-144 15.01 -144 14.02 -144 13 C-137.125 13.875 -137.125 13.875 -136 15 C-118.10759977 16.20184657 -118.10759977 16.20184657 -101 12 C-99.02 12 -97.04 12 -95 12 C-94.67 12.33 -94.34 12.66 -94 13 C-87.92694798 13.44774281 -81.83594666 13.56448044 -75.75 13.75 C-74.03167969 13.81832031 -72.31335938 13.88664063 -70.54296875 13.95703125 C-68.06990234 14.03244141 -68.06990234 14.03244141 -65.546875 14.109375 C-63.27055176 14.18623535 -63.27055176 14.18623535 -60.94824219 14.26464844 C-56.59588168 14.27432363 -56.59588168 14.27432363 -52 11 C-46.14629179 10.43351211 -42.23652909 11.38173546 -37 14 C-37 12.35 -37 10.7 -37 9 C-32.73046875 7.41796875 -32.73046875 7.41796875 -27.1875 6.1875 C-24.45533203 5.55908203 -24.45533203 5.55908203 -21.66796875 4.91796875 C-17 4 -17 4 -14 4 C-13.67 3.01 -13.34 2.02 -13 1 C-9.01816265 -0.99091867 -4.33533068 -0.14779536 0 0 Z " fill="#76AF5A" transform="translate(460,603)"/>
<path d="M0 0 C6.93 0 13.86 0 21 0 C21 33.33 21 66.66 21 101 C14.07 101 7.14 101 0 101 C-1.9461656 95.81022508 -3.79118891 90.70278783 -5.48046875 85.4375 C-5.92197266 84.06464844 -6.36347656 82.69179688 -6.81835938 81.27734375 C-7.27017578 79.86582031 -7.72199219 78.45429688 -8.1875 77 C-8.65091797 75.55753906 -9.11433594 74.11507812 -9.59179688 72.62890625 C-10.72959337 69.08648829 -11.86560625 65.54350879 -13 62 C-12.92031982 63.18142578 -12.84063965 64.36285156 -12.75854492 65.58007812 C-12.46048153 70.88712437 -12.32190493 76.18640251 -12.1875 81.5 C-12.05923828 83.36011719 -11.93097656 85.22023438 -11.79882812 87.13671875 C-11.73046875 92.46875 -11.73046875 92.46875 -14 101 C-20.93 101 -27.86 101 -35 101 C-35 68 -35 35 -35 1 C-27.74 1 -20.48 1 -13 1 C-9.70955377 6.81703888 -8.98722975 9.64077008 -8 16 C-6.95640526 19.80279598 -5.87202418 23.59460201 -4.75 27.375 C-4.24984375 29.17710937 -3.7496875 30.97921875 -3.234375 32.8359375 C-2.44485799 36.71413521 -2.44485799 36.71413521 -1 38 C-1.07968018 36.84886719 -1.15936035 35.69773437 -1.24145508 34.51171875 C-1.53951966 29.34072999 -1.67808571 24.17771192 -1.8125 19 C-1.94076172 17.18757813 -2.06902344 15.37515625 -2.20117188 13.5078125 C-2.26953125 8.3125 -2.26953125 8.3125 0 0 Z " fill="#11C8E4" transform="translate(404,388)"/>
<path d="M0 0 C19.61251695 -3.32818469 19.61251695 -3.32818469 27 0 C31.38948927 7.01987936 30.35554319 16.55300948 30.10205078 24.52929688 C29.97652239 28.79846329 30.23478538 32.99375583 30.5625 37.25 C30.60503906 38.38953125 30.64757812 39.5290625 30.69140625 40.703125 C31.05635895 44.6021133 32.02114241 48.21323204 33 52 C33.14622803 50.63794434 33.29245605 49.27588867 33.44311523 47.87255859 C33.98778515 42.80697716 34.5340162 37.74156909 35.08129883 32.67626953 C35.31759996 30.48623261 35.55328325 28.29612893 35.78833008 26.10595703 C36.12678222 22.95327172 36.4674741 19.80083517 36.80859375 16.6484375 C37.01282959 14.75270996 37.21706543 12.85698242 37.42749023 10.90380859 C37.71088257 8.47642334 37.71088257 8.47642334 38 6 C38.07025391 4.80246094 38.14050781 3.60492188 38.21289062 2.37109375 C38.47263672 1.58863281 38.73238281 0.80617188 39 0 C43.54080386 -0.45990586 47.53873138 -0.55964362 52.0625 -0.375 C53.29806641 -0.34792969 54.53363281 -0.32085937 55.80664062 -0.29296875 C58.871827 -0.22196057 61.936124 -0.11433953 65 0 C65.33563949 8.99160541 64.02638824 17.50655704 62.625 26.375 C61.18357284 35.78047449 59.77915709 45.14284485 58.9375 54.625 C57.92827912 65.86099246 55.97502009 76.89822693 54 88 C54.03222656 89.02963867 54.06445312 90.05927734 54.09765625 91.12011719 C54.0625 94.14453125 54.0625 94.14453125 52 99 C45.68428147 100.6713405 39.48909083 100.34504853 33 100.125 C31.21335937 100.13402344 29.42671875 100.14304687 27.5859375 100.15234375 C17.78606209 99.99620006 17.78606209 99.99620006 14 99 C12.53076172 95.82885742 12.53076172 95.82885742 12 92 C11.82484863 90.96512451 11.64969727 89.93024902 11.46923828 88.86401367 C11.33759277 87.80931885 11.20594727 86.75462402 11.0703125 85.66796875 C10.91691406 84.47107422 10.76351562 83.27417969 10.60546875 82.04101562 C10.44691406 80.76935547 10.28835937 79.49769531 10.125 78.1875 C8.87018217 68.43671631 7.53685103 58.71038005 6 49 C4.47040607 39.26462929 3.0684908 29.51624974 1.75 19.75 C1.5746875 18.46996094 1.399375 17.18992187 1.21875 15.87109375 C1.05890625 14.67097656 0.8990625 13.47085937 0.734375 12.234375 C0.59225586 11.17444336 0.45013672 10.11451172 0.30371094 9.02246094 C0.0028486 6.0283486 0 3.0091904 0 0 Z " fill="#10C7E4" transform="translate(237,389)"/>
<path d="M0 0 C0 0.66 0 1.32 0 2 C2.31 2 4.62 2 7 2 C7 2.99 7 3.98 7 5 C5.68 5.66 4.36 6.32 3 7 C5.31 7 7.62 7 10 7 C9.34 8.32 8.68 9.64 8 11 C8.66 10.67 9.32 10.34 10 10 C18.14471441 8.38999831 25.69512269 7.51147781 34 8 C34.33 8.99 34.66 9.98 35 11 C31.70479239 12.42495464 28.36472942 13.74800766 25 15 C23.35 15.99 21.7 16.98 20 18 C18.02 18.495 18.02 18.495 16 19 C9.89726736 21.00475656 3.82693332 23.10601264 -2.25 25.1875 C-4.74046875 26.03538086 -4.74046875 26.03538086 -7.28125 26.90039062 C-16.3132797 29.99010925 -25.28226178 33.19848009 -34.20800781 36.58227539 C-40.34913146 38.87827752 -46.54678562 41.0037282 -52.75 43.125 C-53.96042969 43.54136719 -55.17085938 43.95773438 -56.41796875 44.38671875 C-58.79894739 45.20429914 -61.18107544 46.01854141 -63.56445312 46.82910156 C-65.85255307 47.60892869 -68.13774741 48.39733441 -70.41992188 49.19433594 C-78.55807498 52 -78.55807498 52 -83 52 C-84.04363446 49.68585403 -85.03730683 47.34897133 -86 45 C-90.17317412 40.29180356 -93.33090519 37.11660614 -99.80859375 36.6640625 C-103.55856132 36.63803913 -107.30856848 36.61719846 -111.05859375 36.6015625 C-116.55624167 35.93228362 -117.62330114 35.15499424 -121 31 C-122.65 30.01 -124.3 29.02 -126 28 C-125 25 -125 25 -122.125 23.4375 C-118 22 -118 22 -112.125 20.9375 C-110.43375 20.628125 -108.7425 20.31875 -107 20 C-106.67 19.34 -106.34 18.68 -106 18 C-107.32 18 -108.64 18 -110 18 C-109.67 17.01 -109.34 16.02 -109 15 C-106.41796875 13.71875 -106.41796875 13.71875 -103.1875 12.5 C-99.11956249 10.95408465 -96.55083536 9.66312652 -93 7 C-88.97116554 5.65705518 -85.36962278 5.86812055 -81.125 5.875 C-78.74667969 5.87113281 -78.74667969 5.87113281 -76.3203125 5.8671875 C-72 6 -72 6 -67 7 C-67 6.01 -67 5.02 -67 4 C-62.43545749 4.54339792 -59.0271824 5.79463821 -55 8 C-55.99 6.35 -56.98 4.7 -58 3 C-57.67 2.01 -57.34 1.02 -57 0 C-52.95703125 -0.44140625 -52.95703125 -0.44140625 -47.8125 -0.5625 C-4.11548401 -1.66579115 -4.11548401 -1.66579115 0 0 Z " fill="#76B45E" transform="translate(288,49)"/>
<path d="M0 0 C14.54013419 0.84535664 26.24667695 7.09805176 36.375 17.3125 C40.57487654 22.18524409 42.09154975 26.25123729 42.6875 32.6875 C41.85419435 42.35384554 38.01589615 47.67160385 31.375 54.3125 C26.10670732 58.3125 26.10670732 58.3125 23.375 58.3125 C23.0206291 56.32559991 22.77009883 54.32004911 22.5625 52.3125 C21.54638053 45.01707975 19.28918451 40.08097529 13.875 34.9375 C7.0513025 30.50209662 0.22316744 30.33591808 -7.625 31.3125 C-14.82613749 35.06103732 -17.76511468 39.80530103 -20.625 47.3125 C-21.42483091 55.61074574 -20.13129081 60.8828389 -15.25 67.5625 C-11.51666171 71.47361631 -7.6121529 73.31763884 -2.625 75.3125 C-6.625 79.3125 -6.625 79.3125 -9.25 80.9375 C-14.41230036 84.57022989 -20.75734958 89.57719916 -23.625 95.3125 C-32.04355809 93.62878838 -37.65329438 88.12157509 -42.625 81.3125 C-50.2207978 66.77508794 -53.62982327 52.64117075 -49.0625 36.3125 C-44.51921911 23.76666821 -36.07860917 13.25977114 -24.625 6.3125 C-16.34402413 2.6075767 -9.03412541 0.61041388 0 0 Z " fill="#0FC8E3" transform="translate(311.625,191.6875)"/>
<path d="M0 0 C40 0 40 0 49 6 C54.56313306 13.30054231 53.51963497 21.92185938 53.375 30.6875 C53.37371094 32.18345703 53.37242187 33.67941406 53.37109375 35.22070312 C53.2816578 46.29585551 53.2816578 46.29585551 51 52 C45.00990099 57.66336634 45.00990099 57.66336634 41 59 C39.74832031 58.8774585 38.49664062 58.75491699 37.20703125 58.62866211 C32.56566419 58.32362115 29.32521014 58.23309784 25 60 C22.79456272 68.11028353 24.68307442 76.95556073 25.68359375 85.18554688 C26 90.50390625 26 90.50390625 24 99 C16.08 99 8.16 99 0 99 C0 66.33 0 33.66 0 0 Z " fill="#11C9E5" transform="translate(308,389)"/>
<path d="M0 0 C3.46404546 3.46404546 5.50545195 7.02957277 8 11.25 C13.21572702 19.88078638 18.88118574 27.99113079 25 36 C25.67160156 36.88558594 26.34320313 37.77117187 27.03515625 38.68359375 C29.74035779 42.209274 32.51993932 45.5756471 35.5 48.875 C36.325 49.90625 37.15 50.9375 38 52 C37.67 52.99 37.34 53.98 37 55 C33.1273408 55.9681648 29.96388638 56.07622858 26 56 C26 57.98 26 59.96 26 62 C25.67 62.33 25.34 62.66 25 63 C22.66055264 62.71269945 20.3260857 62.38063221 18 62 C18 63.98 18 65.96 18 68 C19.98 67.505 19.98 67.505 22 67 C22 67.99 22 68.98 22 70 C20.68 70 19.36 70 18 70 C17.67 71.65 17.34 73.3 17 75 C16.34 75.99 15.68 76.98 15 78 C14.34 78 13.68 78 13 78 C13 79.98 13 81.96 13 84 C13.99 84.99 14.98 85.98 16 87 C14.24390578 90.51218843 12.46387728 92.99714957 10 96 C7.53774984 99.09245003 7.53774984 99.09245003 8 104 C7.67 104.33 7.34 104.66 7 105 C8.485 106.175625 8.485 106.175625 10 107.375 C10.99 108.24125 11.98 109.1075 13 110 C13 110.66 13 111.32 13 112 C14.98 112 16.96 112 19 112 C19.495 112.99 19.495 112.99 20 114 C12.37526355 116.61121111 7.58849802 117.62509305 0 114.9375 C-4.28790188 112.16823004 -7.00884518 109.12779365 -10 105 C-10.375 100.5625 -10.375 100.5625 -10 97 C-10.33 96.67 -10.66 96.34 -11 96 C-11.15031917 92.01654197 -10.97229218 88.88916872 -10 85 C-10.33 83.68 -10.66 82.36 -11 81 C-10.01 80.01 -10.01 80.01 -9 79 C-8.3839535 76.64319825 -7.85273616 74.26368079 -7.375 71.875 C-7.11460937 70.59367188 -6.85421875 69.31234375 -6.5859375 67.9921875 C-6.39257812 67.00476563 -6.19921875 66.01734375 -6 65 C-6.99 65 -7.98 65 -9 65 C-8.93916672 62.20775242 -8.85017046 59.41611324 -8.75 56.625 C-8.70359375 55.07039062 -8.6571875 53.51578125 -8.609375 51.9140625 C-8 47 -8 47 -6.09375 42.59375 C-3.07030862 34.51619765 -2.54973732 26.42301199 -1.75 17.875 C-1.57726562 16.15539062 -1.40453125 14.43578125 -1.2265625 12.6640625 C-0.80453879 8.44382541 -0.39610037 4.22273567 0 0 Z " fill="#76B45F" transform="translate(165,464)"/>
<path d="M0 0 C-0.66 3.3 -1.32 6.6 -2 10 C-1.34 10 -0.68 10 0 10 C-0.3403125 8.329375 -0.3403125 8.329375 -0.6875 6.625 C-0.790625 5.42875 -0.89375 4.2325 -1 3 C3.50023434 -0.00015622 7.7164887 0.87568209 13 1 C13 2.32 13 3.64 13 5 C15.97 5 18.94 5 22 5 C22 4.34 22 3.68 22 3 C19.36 3 16.72 3 14 3 C14 2.34 14 1.68 14 1 C20.56655889 0.27038235 23.95996936 1.8975491 29.4140625 5.48046875 C33.34373381 7.78959585 37.64146541 8.73831894 42 10 C45.625 12.1875 45.625 12.1875 48 14 C45.35687449 16.64312551 42.76185236 17.35806592 39.25 18.625 C38.03828125 19.07101563 36.8265625 19.51703125 35.578125 19.9765625 C32 21 32 21 26 21 C25.05382812 20.17886719 24.10765625 19.35773438 23.1328125 18.51171875 C19.0887598 15.26941714 16.97958331 15.53517918 11.875 15.8125 C4.55330665 16.02840423 -1.86795428 15.71530213 -9 14 C-9 13.01 -9 12.02 -9 11 C-9.99 11 -10.98 11 -12 11 C-11.76435605 6.91550495 -11.59037881 4.65785068 -8.8125 1.5625 C-6 0 -6 0 0 0 Z " fill="#72B166" transform="translate(127,97)"/>
<path d="M0 0 C-0.33 1.32 -0.66 2.64 -1 4 C-2.65 4.99 -4.3 5.98 -6 7 C-6.98082606 10.04650188 -6.98082606 10.04650188 -7 13 C-6.67 13.33 -6.34 13.66 -6 14 C-4.65503708 20.40835276 -3.52160796 26.42210949 -4 33 C-6 35 -6 35 -9.16015625 35.3046875 C-13.45387769 34.96398529 -16.50739529 33.86339552 -20.4375 32.125 C-21.67371094 31.59132813 -22.90992188 31.05765625 -24.18359375 30.5078125 C-25.11300781 30.01023437 -26.04242188 29.51265625 -27 29 C-27 28.34 -27 27.68 -27 27 C-27.99 26.67 -28.98 26.34 -30 26 C-30.6875 21.9375 -30.6875 21.9375 -31 18 C-28.36 18 -25.72 18 -23 18 C-23.144375 16.535625 -23.28875 15.07125 -23.4375 13.5625 C-23.293125 12.056875 -23.14875 10.55125 -23 9 C-19.9375 8.375 -19.9375 8.375 -16 8 C-12.1870848 4.60416584 -12.1870848 4.60416584 -9 1 C-6.04335481 -0.4783226 -3.25770263 -0.06032783 0 0 Z " fill="#74B061" transform="translate(219,594)"/>
<path d="M0 0 C1.50716288 4.52148865 -0.46258525 7.55857962 -2 12 C-2.165 13.588125 -2.33 15.17625 -2.5 16.8125 C-4 21 -4 21 -6.53515625 22.41796875 C-9.31301544 23.41082939 -12.15625872 24.21551965 -15 25 C-15.33 25.33 -15.66 25.66 -16 26 C-18.85330872 26.07301199 -21.7083356 26.08364196 -24.5625 26.0625 C-26.13128906 26.05347656 -27.70007813 26.04445313 -29.31640625 26.03515625 C-30.53199219 26.02355469 -31.74757812 26.01195312 -33 26 C-26.95285825 13.9057165 -14.67531739 -1.08706055 0 0 Z " fill="#13C2E0" transform="translate(282,291)"/>
<path d="M0 0 C-0.33 1.32 -0.66 2.64 -1 4 C-4.97265625 5.2734375 -4.97265625 5.2734375 -10.0625 6.375 C-19.1160821 8.56898699 -24.43030842 11.43030842 -31 18 C-31 19.98 -31 21.96 -31 24 C-30.01 24.99 -29.02 25.98 -28 27 C-28 27.66 -28 28.32 -28 29 C-34.0491232 29.5040936 -37.84000668 28.16841695 -43 25 C-43 24.01 -43 23.02 -43 22 C-42.01 22 -41.02 22 -40 22 C-39.67 20.35 -39.34 18.7 -39 17 C-38.01 16.01 -37.02 15.02 -36 14 C-35.01 12.35 -34.02 10.7 -33 9 C-25.94152821 4.14730065 -21.56688683 2.88413747 -13.0078125 2.4765625 C-7.24106821 1.56287055 -6.23953129 -1.24790626 0 0 Z " fill="#79B36F" transform="translate(536,81)"/>
<path d="M0 0 C4.15414253 1.22736029 6.43688534 2.327664 10 5 C12.475 5.495 12.475 5.495 15 6 C15.99 7.485 15.99 7.485 17 9 C18.32 9.66 19.64 10.32 21 11 C21 11.99 21 12.98 21 14 C17.625 13.75 17.625 13.75 14 13 C13.34 11.68 12.68 10.36 12 9 C8.14061025 9.91052075 8.14061025 9.91052075 5 11 C4.34 12.65 3.68 14.3 3 16 C-2 15 -2 15 -5 13 C-4.34 11.68 -3.68 10.36 -3 9 C-4.093125 9.020625 -5.18625 9.04125 -6.3125 9.0625 C-10 9 -10 9 -13 8 C-13.75 5 -13.75 5 -14 2 C-13 1 -13 1 -8.625 0.8125 C-4 1 -4 1 -1 3 C-0.67 2.01 -0.34 1.02 0 0 Z " fill="#70AF69" transform="translate(398,66)"/>
<path d="M0 0 C3.46323092 3.46323092 3.48720244 4.55326752 4.1875 9.25 C6.97461403 24.44710599 13.01555692 39.17147217 19.06640625 53.33203125 C19.37449219 54.21246094 19.68257812 55.09289062 20 56 C19.67 56.66 19.34 57.32 19 58 C14.05528995 54.29146746 13.81043928 51.80849268 12 46 C10.68367851 43.32489503 9.34966785 40.65843668 8 38 C7.0409375 35.4321875 7.0409375 35.4321875 6.0625 32.8125 C4.40170049 28.01766525 4.40170049 28.01766525 1.25 25.5 C-1 23 -1 23 -1.3125 17.6875 C-1.209375 16.140625 -1.10625 14.59375 -1 13 C-0.34 13 0.32 13 1 13 C1 11.68 1 10.36 1 9 C0.34 9 -0.32 9 -1 9 C-1.125 2.25 -1.125 2.25 0 0 Z " fill="#72B171" transform="translate(130,375)"/>
<path d="M0 0 C1.65 0 3.3 0 5 0 C8 3 8 3 8.3984375 6.6171875 C8.39070313 8.02226562 8.38296875 9.42734375 8.375 10.875 C8.38273437 12.27492188 8.39046875 13.67484375 8.3984375 15.1171875 C8 19 8 19 5 24 C3.35 24.33 1.7 24.66 0 25 C0 16.75 0 8.5 0 0 Z " fill="#0E4D78" transform="translate(333,407)"/>
<path d="M0 0 C4.0625 0.3125 4.0625 0.3125 8 1 C8 1.66 8 2.32 8 3 C10.56394531 2.98259766 10.56394531 2.98259766 13.1796875 2.96484375 C15.41145725 2.95546657 17.64322817 2.94636629 19.875 2.9375 C21.56689453 2.92493164 21.56689453 2.92493164 23.29296875 2.91210938 C31.7734375 2.88671875 31.7734375 2.88671875 34 4 C33.67 5.32 33.34 6.64 33 8 C28.125 8.1875 28.125 8.1875 23 8 C22.01 8.33 21.02 8.66 20 9 C16.62622783 9.09102927 13.24912622 9.07679377 9.875 9 C8.05742188 8.979375 6.23984375 8.95875 4.3671875 8.9375 C2.92601563 8.628125 1.48484375 8.31875 0 8 C-1.1796875 4.5 -1.1796875 4.5 -1 1 C-0.67 0.67 -0.34 0.34 0 0 Z " fill="#72B174" transform="translate(109,85)"/>
<path d="M0 0 C3.66645471 0.03942424 7.33359943 0.0441735 11 0 C11 0.99 11 1.98 11 3 C4.14595106 5.68786233 -2.85407048 5.17208368 -10 4 C-11.32 3.34 -12.64 2.68 -14 2 C-14 1.34 -14 0.68 -14 0 C-9.62529397 -2.18735302 -4.59746396 -0.91949279 0 0 Z " fill="#70B074" transform="translate(417,65)"/>
<path d="M0 0 C1.45307155 4.35921466 -0.03593869 7.14990028 -1.375 11.5 C-1.83648437 13.0159375 -2.29796875 14.531875 -2.7734375 16.09375 C-4.92923524 22.95934791 -4.92923524 22.95934791 -7.9375 24.6875 C-11 26 -11 26 -13 26 C-11.86300935 21.45203739 -9.96227313 18.186863 -7.625 14.125 C-4.95339236 9.46926682 -2.34629074 4.82881772 0 0 Z " fill="#71AC78" transform="translate(506,451)"/>
<path d="M0 0 C2.6875 -0.30078125 2.6875 -0.30078125 6 -0.3125 C7.093125 -0.32925781 8.18625 -0.34601563 9.3125 -0.36328125 C10.199375 -0.24339844 11.08625 -0.12351562 12 0 C12.33 0.99 12.66 1.98 13 3 C9 5 9 5 6 5 C6 5.66 6 6.32 6 7 C5.01 7 4.02 7 3 7 C3 7.66 3 8.32 3 9 C1.68 9 0.36 9 -1 9 C-1.125 2.25 -1.125 2.25 0 0 Z " fill="#74AE78" transform="translate(100,95)"/>
<path d="M0 0 C5 0 5 0 8.3125 2.1875 C11 5 11 5 11 10 C10.01 10.66 9.02 11.32 8 12 C1.33333333 5.33333333 1.33333333 5.33333333 0 0 Z " fill="#69A167" transform="translate(642,353)"/>
<path d="M0 0 C0 0.66 0 1.32 0 2 C1.32 2.66 2.64 3.32 4 4 C0.14369801 6.57086799 -2.45365467 6.1490605 -7 6 C-5.68 8.31 -4.36 10.62 -3 13 C-3.66 13 -4.32 13 -5 13 C-5.99 11.68 -6.98 10.36 -8 9 C-9.32 9.33 -10.64 9.66 -12 10 C-12.99 10 -13.98 10 -15 10 C-3.63636364 0 -3.63636364 0 0 0 Z " fill="#234D41" transform="translate(139,61)"/>
<path d="M0 0 C0.66 0 1.32 0 2 0 C3.8595197 4.64879925 4.65627601 7.1248068 4 12 C2.35 12.33 0.7 12.66 -1 13 C-1.33 12.67 -1.66 12.34 -2 12 C-1.26829268 1.26829268 -1.26829268 1.26829268 0 0 Z " fill="#75B478" transform="translate(599,342)"/>
<path d="M0 0 C1.32 0.33 2.64 0.66 4 1 C4.33 1.99 4.66 2.98 5 4 C4.01 5.32 3.02 6.64 2 8 C0.68 7.34 -0.64 6.68 -2 6 C-2 2 -2 2 0 0 Z " fill="#7FBA80" transform="translate(93,100)"/>
<path d="M0 0 C0.33 0 0.66 0 1 0 C1 3.63 1 7.26 1 11 C0.34 11 -0.32 11 -1 11 C-0.938125 12.0725 -0.87625 13.145 -0.8125 14.25 C-1 18 -1 18 -4 22 C-3.36585032 14.51703378 -2.05444121 7.22404056 0 0 Z " fill="#B8CBDA" transform="translate(506,351)"/>
</svg>
